<svg xmlns="http://www.w3.org/2000/svg" width="500" height="500" style="shape-rendering:geometricPrecision;text-rendering:geometricPrecision;image-rendering:optimizeQuality;fill-rule:evenodd;clip-rule:evenodd"><rect width="500" height="500" style="stroke:none;fill:#209cee" rx="15" ry="15"/><path style="opacity:.006" fill="#fff" d="M106.5 42.5c-5.249 1.198-10.249 3.198-15 6 4.1-4.56 9.099-6.56 15-6z"/><path style="opacity:.999" fill="#fff" d="M117.5 42.5a26.329 26.329 0 0 0 5 2c.667 0 1-.333 1-1 1.278.282 2.278.949 3 2 1.716 1.525 3.716 2.525 6 3 1 .333 1.667 1 2 2a6.544 6.544 0 0 0 3 3c0 .667.333 1 1 1 .58 2.249 1.913 3.915 4 5 1.006.438 1.006 1.104 0 2a70.197 70.197 0 0 1 3 7 51.56 51.56 0 0 1 1 7v345c.134 1.792-.199 3.458-1 5 1.333 1 1.333 2 0 3-1.238 1.714-1.905 3.714-2 6l-1 2c-1.406.473-2.073 1.473-2 3a57.51 57.51 0 0 0-9 9c-1.247.023-2.58.689-4 2-1.653.16-2.986.826-4 2-.702.616-1.702.616-3 0a20.69 20.69 0 0 1-5 1h-10a5.727 5.727 0 0 0-3-1h-1a71.953 71.953 0 0 1-14-8l-2-2c-.238-1.904-1.238-3.238-3-4-.838-.342-1.172-1.008-1-2a32.517 32.517 0 0 0-3-7v-2a5.728 5.728 0 0 1-1-3v-353a5.728 5.728 0 0 1 1-3c.086-.996-.248-1.83-1-2.5.88-.708 1.547-1.542 2-2.5 1.507-1.681 2.507-3.681 3-6 .667 0 1-.333 1-1 1.762-.762 2.762-2.096 3-4 1.904-.238 3.238-1.238 4-3 .667 0 1-.333 1-1 4.751-2.802 9.751-4.802 15-6 3.667-1.333 7.333-1.333 11 0z"/><path style="opacity:.011" fill="#fff" d="M123.5 43.5c-.667 0-1 .333-1 1a26.329 26.329 0 0 1-5-2c.06-.543.393-.876 1-1 1.836.528 3.503 1.194 5 2z"/><path style="opacity:.007" fill="#fff" d="M248.5 42.5a51.354 51.354 0 0 0-8 3c.077-1.25.744-2.083 2-2.5a28.043 28.043 0 0 0 5-1.5c.607.124.94.457 1 1z"/><path style="opacity:.996" fill="#fff" d="M402.5 42.5c2.461 1.031 5.127 1.698 8 2 1.014 1.174 2.347 1.84 4 2 .473 1.406 1.473 2.073 3 2 0 .667.333 1 1 1 2 2.667 4.333 5 7 7 1.791.728 2.458 1.728 2 3l3 8c1.917 2.145 2.25 4.479 1 7v6c.067 1.459-.266 2.792-1 4v2l-1 2v1c-1.037 1.43-1.704 3.097-2 5 .458 1.272-.209 2.272-2 3-2.667 2-5 4.333-7 7-.667 0-1 .333-1 1-2.831.579-5.164 1.912-7 4-.709.904-1.709 1.237-3 1a3322.455 3322.455 0 0 1-163 0c-1.171-.845-2.505-1.511-4-2-.896 1.006-1.562 1.006-2 0-.936-1.474-2.27-2.474-4-3-.762-1.762-2.096-2.762-4-3-1.667-1-3-2.333-4-4-.25-2.174-1.25-3.84-3-5v-1l-1-2v-1c-2.283-8.205-2.616-16.538-1-25 .667 0 1-.333 1-1l1-2v-1c.838-.342 1.172-1.008 1-2 1.762-.762 2.762-2.096 3-4 1-.333 1.667-1 2-2a6.544 6.544 0 0 1 3-3c1.527.073 2.527-.594 3-2 1.653-.16 2.986-.826 4-2h1a51.354 51.354 0 0 1 8-3 2965.074 2965.074 0 0 1 154 0z"/><path style="opacity:.008" fill="#fff" d="M410.5 44.5c-2.873-.302-5.539-.969-8-2 .65-.304 1.317-.637 2-1 2.419.414 4.419 1.414 6 3z"/><path style="opacity:.017" fill="#fff" d="M410.5 44.5c1.88-.27 3.213.396 4 2-1.653-.16-2.986-.826-4-2z"/><path style="opacity:.012" fill="#fff" d="M126.5 45.5c.06-.543.393-.876 1-1 1.919 1.112 3.586 2.446 5 4-2.284-.475-4.284-1.475-6-3z"/><path style="opacity:.137" fill="#fff" d="M239.5 45.5c-1.014 1.174-2.347 1.84-4 2 .815-1.337 1.982-2.337 3.5-3 .399.228.565.562.5 1z"/><path style="opacity:.008" fill="#fff" d="M414.5 46.5c1.527-.073 2.527.594 3 2-1.527.073-2.527-.594-3-2z"/><path style="opacity:.059" fill="#fff" d="M235.5 47.5c-.473 1.406-1.473 2.073-3 2 .473-1.406 1.473-2.073 3-2z"/><path style="opacity:.013" fill="#fff" d="M425.5 56.5c-2.667-2-5-4.333-7-7-.065-.438.101-.772.5-1l7.5 7.5c-.228.399-.562.565-1 .5z"/><path style="opacity:.208" fill="#fff" d="M90.5 49.5c-.762 1.762-2.096 2.762-4 3 1.037-2.128 2.37-3.128 4-3z"/><path style="opacity:.005" d="M134.5 50.5c1.696.185 3.029 1.019 4 2.5-.228.399-.562.565-1 .5a6.544 6.544 0 0 1-3-3z"/><path style="opacity:.009" d="M229.5 52.5c-.333 1-1 1.667-2 2 0-1.333.667-2 2-2z"/><path style="opacity:.165" fill="#fff" d="M86.5 52.5c-.238 1.904-1.238 3.238-3 4-.128-1.63.872-2.962 3-4z"/><path style="opacity:.008" fill="#fff" d="M227.5 54.5c-.238 1.904-1.238 3.238-3 4 .238-1.904 1.238-3.238 3-4z"/><path style="opacity:.106" fill="#fff" d="M138.5 54.5c2.087 1.085 3.42 2.751 4 5-2.087-1.085-3.42-2.751-4-5z"/><path style="opacity:.055" fill="#fff" d="M224.5 58.5c.172.992-.162 1.658-1 2-.939-.827-.605-1.494 1-2z"/><path style="opacity:.006" fill="#fff" d="M82.5 57.5c-.493 2.319-1.493 4.319-3 6-.438.065-.772-.101-1-.5.988-2.167 2.321-4 4-5.5zm60 4c2.954 1.568 3.954 3.901 3 7a70.197 70.197 0 0 0-3-7z"/><path style="opacity:.004" fill="#fff" d="m223.5 61.5-1 2c-1.257-1.123-.924-1.79 1-2z"/><path style="opacity:.005" fill="#fff" d="M427.5 59.5c2.067 1.818 3.4 4.151 4 7-.124.607-.457.94-1 1l-3-8z"/><path style="opacity:.008" fill="#fff" d="M221.5 64.5c-1.616 8.462-1.283 16.795 1 25-1.25-.077-2.083-.744-2.5-2a43.397 43.397 0 0 1-1-17c.24-2.352 1.073-4.352 2.5-6z"/><path style="opacity:.012" d="M78.5 68.5a5.728 5.728 0 0 0-1 3c-1.385-1.447-1.052-2.447 1-3z"/><path style="opacity:.009" fill="#fff" d="M145.5 68.5c2.034 2.155 2.367 4.488 1 7a51.56 51.56 0 0 0-1-7zm-68 5v350a7614.08 7614.08 0 0 1-2-175c0-58.671.667-117.004 2-175z"/><path style="opacity:.006" d="M431.5 74.5c1.149.291 1.816 1.124 2 2.5-.184 1.376-.851 2.209-2 2.5v-2c1.333-.333 1.333-.667 0-1v-2z"/><path style="opacity:.008" fill="#fff" d="M431.5 80.5c.624.417.957 1.084 1 2-.247 1.213-.914 1.88-2 2 .734-1.208 1.067-2.541 1-4zm-1 6c1.257 1.123.924 1.79-1 2l1-2z"/><path style="opacity:.004" fill="#fff" d="m222.5 90.5 1 2c-1.924-.21-2.257-.877-1-2z"/><path style="opacity:.006" fill="#fff" d="M429.5 89.5c.849 2.01.182 3.677-2 5 .296-1.903.963-3.57 2-5z"/><path style="opacity:.004" fill="#fff" d="M223.5 93.5c1.75 1.16 2.75 2.826 3 5a32.634 32.634 0 0 1-4-4.5c.228-.399.562-.565 1-.5z"/><path style="opacity:.013" fill="#fff" d="M425.5 97.5c-1.333 3.333-3.667 5.667-7 7 2-2.667 4.333-5 7-7z"/><path style="opacity:.467" fill="#fff" d="M230.5 102.5c1.904.238 3.238 1.238 4 3-1.904-.238-3.238-1.238-4-3z"/><path style="opacity:.007" fill="#fff" d="M234.5 105.5c1.73.526 3.064 1.526 4 3-2.132-.054-3.465-1.054-4-3zm183 0c-1.84 2.169-4.174 3.502-7 4 1.836-2.088 4.169-3.421 7-4z"/><path style="opacity:.005" fill="#fff" d="M240.5 108.5c1.495.489 2.829 1.155 4 2-1.983.343-3.317-.324-4-2z"/><path style="opacity:.011" fill="#fff" d="M244.5 110.5a3322.455 3322.455 0 0 0 163 0c-.418.722-1.084 1.222-2 1.5-53 .667-106 .667-159 0-.916-.278-1.582-.778-2-1.5z"/><path style="opacity:.008" fill="#fff" d="M248.5 213.5a1571.148 1571.148 0 0 1 97-.5c.556.383.889.883 1 1.5a2479.146 2479.146 0 0 0-98-1z"/><path style="opacity:.016" fill="#fff" d="M246.5 214.5a5.727 5.727 0 0 0-3 1c.553-2.052 1.553-2.385 3-1z"/><path style="opacity:.014" d="M348.5 214.5c1.447-1.385 2.447-1.052 3 1a5.727 5.727 0 0 0-3-1z"/><path style="opacity:.999" fill="#fff" d="M248.5 213.5c32.698-.312 65.364.021 98 1h2a5.727 5.727 0 0 1 3 1h1c2.349 1.841 5.015 3.174 8 4 .667 0 1 .333 1 1a25.658 25.658 0 0 0 6 6c1.863 1.226 2.863 2.559 3 4a592.183 592.183 0 0 0 3 8v2c.734 1.208 1.067 2.541 1 4v7c.067 1.459-.266 2.792-1 4v2l-1 2v2c-1.174 1.014-1.84 2.347-2 4 .458 1.272-.209 2.272-2 3-1 .333-1.667 1-2 2 0 2-1 3-3 3a6.547 6.547 0 0 0-3 3c-.473 1.406-1.473 2.073-3 2a592.183 592.183 0 0 0-8 3l-4 1h-96a20.69 20.69 0 0 0-5-1c-1.714-1.238-3.714-1.905-6-2l-2-1c-1.085-2.087-2.751-3.42-5-4-2-1.333-3.667-3-5-5 .073-1.527-.594-2.527-2-3 .172-.992-.162-1.658-1-2v-1l-1-2c0-.667-.333-1-1-1-1.657-8.477-1.324-16.81 1-25v-1l1-2 1-2c.838-.342 1.172-1.008 1-2 .667 0 1-.333 1-1 1.762-.762 2.762-2.096 3-4 2.249-.58 3.915-1.913 5-4l2-2c.333 1.333.667 1.333 1 0a16.339 16.339 0 0 0 5-2h1a5.727 5.727 0 0 1 3-1c.992.172 1.658-.162 2-1z"/><path style="opacity:.004" fill="#fff" d="M242.5 215.5a16.339 16.339 0 0 1-5 2h-1c1.816-1.941 3.816-2.608 6-2z"/><path style="opacity:.031" fill="#fff" d="M360.5 219.5c-2.985-.826-5.651-2.159-8-4-.065-.438.101-.772.5-1 2.824 1.318 5.324 2.985 7.5 5z"/><path style="opacity:.463" fill="#fff" d="M234.5 219.5c-1.085 2.087-2.751 3.42-5 4 1.085-2.087 2.751-3.42 5-4z"/><path style="opacity:.005" fill="#fff" d="M361.5 220.5c3 1 5 3 6 6a25.658 25.658 0 0 1-6-6z"/><path style="opacity:.314" fill="#fff" d="M229.5 223.5c-.238 1.904-1.238 3.238-3 4-.128-1.629.872-2.962 3-4z"/><path style="opacity:.11" fill="#fff" d="M225.5 228.5c.172.992-.162 1.658-1 2-.939-.827-.605-1.494 1-2z"/><path style="opacity:.011" fill="#fff" d="M370.5 230.5c2.067 1.818 3.4 4.151 4 7-.124.607-.457.94-1 1a592.183 592.183 0 0 1-3-8z"/><path style="opacity:.006" fill="#fff" d="m223.5 232.5-1 2c-1.257-1.123-.924-1.789 1-2z"/><path style="opacity:.008" fill="#fff" d="M222.5 235.5c-2.324 8.19-2.657 16.523-1 25-2.306-3.727-3.306-7.894-3-12.5.044-3.57.544-7.07 1.5-10.5.417-1.256 1.25-1.923 2.5-2z"/><path style="opacity:.01" fill="#fff" d="M373.5 240.5c1.086.12 1.753.787 2 2-.043.916-.376 1.583-1 2 .067-1.459-.266-2.792-1-4z"/><path style="opacity:.004" d="M374.5 247.5c2.433 1.048 2.433 1.714 0 2v-2z"/><path style="opacity:.008" fill="#fff" d="M374.5 251.5c.624.417.957 1.084 1 2-.247 1.213-.914 1.88-2 2 .734-1.208 1.067-2.541 1-4zm-1 6c1.257 1.123.924 1.789-1 2l1-2z"/><path style="opacity:.004" fill="#fff" d="m222.5 261.5 1 2c-1.924-.211-2.257-.877-1-2z"/><path style="opacity:.007" fill="#fff" d="M372.5 261.5c.438-.065.772.101 1 .5-.663 1.518-1.663 2.685-3 3.5.16-1.653.826-2.986 2-4z"/><path style="opacity:.133" fill="#fff" d="M223.5 264.5c.838.342 1.172 1.008 1 2-1.605-.506-1.939-1.173-1-2z"/><path style="opacity:.004" fill="#fff" d="M224.5 266.5c1.406.473 2.073 1.473 2 3-1.406-.473-2.073-1.473-2-3z"/><path style="opacity:.008" fill="#fff" d="M368.5 268.5c.438-.065.772.101 1 .5-.744 1.039-1.744 1.539-3 1.5.333-1 1-1.667 2-2z"/><path style="opacity:.012" fill="#fff" d="M363.5 273.5c0 2-1 3-3 3a6.547 6.547 0 0 1 3-3z"/><path style="opacity:.09" fill="#fff" d="M231.5 274.5c2.249.58 3.915 1.913 5 4-2.249-.58-3.915-1.913-5-4z"/><path style="opacity:.01" fill="#fff" d="M238.5 279.5c2.286.095 4.286.762 6 2-2.33.78-4.33.113-6-2z"/><path style="opacity:.012" fill="#fff" d="M357.5 278.5c-2.233 2.629-4.9 3.629-8 3a592.183 592.183 0 0 1 8-3z"/><path style="opacity:.01" fill="#fff" d="M244.5 281.5a20.69 20.69 0 0 1 5 1c-1.838 1.178-3.505.845-5-1z"/><path style="opacity:.012" fill="#fff" d="M349.5 281.5c-1.038 2.019-2.372 2.353-4 1l4-1z"/><path style="opacity:.016" fill="#fff" d="M403.5 385.5a3013.415 3013.415 0 0 0-155 0c25.325-1.333 50.991-2 77-2l77 .5c.556.383.889.883 1 1.5z"/><path style="opacity:.009" fill="#fff" d="M245.5 385.5c-2.436 1.371-5.103 2.371-8 3 .558-1.29 1.558-2.123 3-2.5a15.256 15.256 0 0 0 4.5-1.5c.399.228.565.562.5 1z"/><path style="opacity:.999" fill="#fff" d="M403.5 385.5h2c2.576.988 5.243 1.988 8 3 1.399 1.39 3.066 2.39 5 3 .667 0 1 .333 1 1 1 1.667 2.333 3 4 4 .238 1.904 1.238 3.238 3 4 0 .667.333 1 1 1-.237 1.291.096 2.291 1 3 .418.722 1.084 1.222 2 1.5-.556.383-.889.883-1 1.5l1 2v2c.734 1.208 1.067 2.541 1 4v5c0 .667.333 1 1 1l-1 2a5.727 5.727 0 0 0-1 3 5.576 5.576 0 0 0 1 3c-1.112.765-1.779 1.765-2 3-1.508 1.681-2.508 3.681-3 6-.667 0-1 .333-1 1-1.406.473-2.073 1.473-2 3l-3 3c-1.904.238-3.238 1.238-4 3-2.985.826-5.651 2.159-8 4-.702.616-1.702.616-3 0l-2 1h-155a5.727 5.727 0 0 0-3-1c-1.298.616-2.298.616-3 0-1.681-1.508-3.681-2.508-6-3-.473-1.406-1.473-2.073-3-2-.333-1-1-1.667-2-2 0-.667-.333-1-1-1-1-1.667-2.333-3-4-4-.667 0-1-.333-1-1-.16-1.653-.826-2.986-2-4-.418-.722-1.084-1.222-2-1.5 1.274-.977 1.274-1.811 0-2.5-1.657-8.477-1.324-16.81 1-25v-1c.904-.709 1.237-1.709 1-3 .667 0 1-.333 1-1 .838-.342 1.172-1.008 1-2 .667 0 1-.333 1-1 2.087-1.085 3.42-2.751 4-5 1.904-.238 3.238-1.238 4-3 1.527.073 2.527-.594 3-2 2.897-.629 5.564-1.629 8-3h3a3013.415 3013.415 0 0 1 155 0z"/><path style="opacity:.008" fill="#fff" d="M413.5 388.5a592.183 592.183 0 0 1-8-3c.06-.543.393-.876 1-1 2.849.6 5.182 1.933 7 4zm0 0c2.433-.227 4.099.773 5 3-1.934-.61-3.601-1.61-5-3z"/><path style="opacity:.29" fill="#fff" d="M237.5 388.5c-.473 1.406-1.473 2.073-3 2 .473-1.406 1.473-2.073 3-2z"/><path style="opacity:.011" fill="#fff" d="M234.5 390.5c-.762 1.762-2.096 2.762-4 3 .762-1.762 2.096-2.762 4-3z"/><path style="opacity:.004" fill="#fff" d="M419.5 392.5c2.333.333 3.667 1.667 4 4-1.667-1-3-2.333-4-4z"/><path style="opacity:.137" fill="#fff" d="M230.5 393.5c-.58 2.249-1.913 3.915-4 5 .238-1.978 1.571-3.645 4-5z"/><path style="opacity:.482" fill="#fff" d="M423.5 396.5c2.128 1.038 3.128 2.371 3 4-1.762-.762-2.762-2.096-3-4z"/><path style="opacity:.09" fill="#fff" d="M225.5 399.5c.172.992-.162 1.658-1 2-.939-.827-.605-1.494 1-2z"/><path style="opacity:.011" fill="#fff" d="M427.5 401.5c1.882.721 2.215 1.721 1 3-.904-.709-1.237-1.709-1-3z"/><path style="opacity:.329" fill="#fff" d="M223.5 402.5c.237 1.291-.096 2.291-1 3-.438.065-.772-.101-1-.5.566-.995 1.233-1.828 2-2.5z"/><path style="opacity:.008" fill="#fff" d="M429.5 407.5c1.924.211 2.257.877 1 2l-1-2zm1 4c1.086.12 1.753.787 2 2-.043.916-.376 1.583-1 2 .067-1.459-.266-2.792-1-4z"/><path style="opacity:.007" fill="#fff" d="M222.5 406.5c-2.324 8.19-2.657 16.523-1 25-2.226-3.569-3.226-7.569-3-12 .116-3.72.616-7.387 1.5-11 .417-1.256 1.25-1.923 2.5-2z"/><path style="opacity:.007" d="M431.5 417.5c1.086.12 1.753.787 2 2-.043.916-.376 1.583-1 2-.667 0-1-.333-1-1v-3z"/><path style="opacity:.009" fill="#fff" d="M146.5 420.5c.639.597.972 1.43 1 2.5-.184 1.376-.851 2.209-2 2.5 1.149-.291 1.816-1.124 2-2.5-.028-1.07-.361-1.903-1-2.5zm-69 4a5.728 5.728 0 0 0 1 3c-2.052-.553-2.385-1.553-1-3z"/><path style="opacity:.153" fill="#fff" d="M431.5 423.5c1.385 1.447 1.052 2.447-1 3a5.727 5.727 0 0 1 1-3z"/><path style="opacity:.006" fill="#fff" d="M145.5 428.5c.608 2.184-.059 4.184-2 6 .095-2.286.762-4.286 2-6z"/><path style="opacity:.027" fill="#fff" d="M78.5 429.5a32.517 32.517 0 0 1 3 7c-1.806-1.589-3.139-3.589-4-6 .124-.607.457-.94 1-1z"/><path style="opacity:.009" fill="#fff" d="M429.5 432.5c.438-.065.772.101 1 .5-.988 2.167-2.321 4-4 5.5.492-2.319 1.492-4.319 3-6z"/><path style="opacity:.004" fill="#fff" d="M142.5 436.5c.073 1.527-.594 2.527-2 3-.073-1.527.594-2.527 2-3z"/><path style="opacity:.006" fill="#fff" d="M223.5 435.5c1.174 1.014 1.84 2.347 2 4-1.337-.815-2.337-1.982-3-3.5.228-.399.562-.565 1-.5z"/><path style="opacity:.01" fill="#fff" d="M82.5 438.5c1.762.762 2.762 2.096 3 4-1.762-.762-2.762-2.096-3-4z"/><path style="opacity:.004" fill="#fff" d="M226.5 440.5c1.667 1 3 2.333 4 4-2.333-.333-3.667-1.667-4-4z"/><path style="opacity:.008" fill="#fff" d="M425.5 439.5c.516 1.258-.15 2.258-2 3-.073-1.527.594-2.527 2-3z"/><path style="opacity:.009" fill="#fff" d="M140.5 439.5c-2 4-5 7-9 9a57.51 57.51 0 0 1 9-9z"/><path style="opacity:.013" d="M231.5 445.5c1 .333 1.667 1 2 2a2.428 2.428 0 0 1-2-.5c-1.238-.69-1.238-1.19 0-1.5z"/><path style="opacity:.008" fill="#fff" d="M420.5 445.5c-.762 1.762-2.096 2.762-4 3 .762-1.762 2.096-2.762 4-3z"/><path style="opacity:.006" fill="#fff" d="M87.5 444.5a71.953 71.953 0 0 0 14 8c-.06.543-.393.876-1 1-5.238-1.778-9.571-4.778-13-9zm146 3c1.527-.073 2.527.594 3 2-1.527.073-2.527-.594-3-2z"/><path style="opacity:.011" fill="#fff" d="M236.5 449.5c2.319.492 4.319 1.492 6 3-2.589.039-4.589-.961-6-3z"/><path style="opacity:.009" fill="#fff" d="M416.5 448.5c-1.982 2.637-4.648 3.97-8 4 2.349-1.841 5.015-3.174 8-4z"/><path style="opacity:.008" fill="#fff" d="M127.5 450.5c-.787 1.604-2.12 2.271-4 2 1.014-1.174 2.347-1.84 4-2z"/><path style="opacity:.01" fill="#fff" d="M102.5 452.5a5.727 5.727 0 0 1 3 1c-1.279 1.215-2.279.882-3-1z"/><path style="opacity:.006" fill="#fff" d="M120.5 452.5c-.12 1.086-.787 1.753-2 2a39.134 39.134 0 0 1-6.5 1c-1.986-.069-3.486-.735-4.5-2h2c.667 1.333 1.333 1.333 2 0h3c.333 1.333.667 1.333 1 0a20.69 20.69 0 0 0 5-1z"/><path style="opacity:.01" fill="#fff" d="M245.5 452.5a5.727 5.727 0 0 1 3 1c-1.279 1.215-2.279.882-3-1z"/><path style="opacity:.007" d="M250.5 453.5h3c.667 1.333 1.333 1.333 2 0h3c.333 1.333.667 1.333 1 0h3c.333 1.333.667 1.333 1 0h4c.333 1.333.667 1.333 1 0h3c.333 1.333.667 1.333 1 0h3c.333 1.333.667 1.333 1 0h4c.333 1.333.667 1.333 1 0h3c.333 1.333.667 1.333 1 0h3c.333 1.333.667 1.333 1 0h4c.333 1.333.667 1.333 1 0h3c.333 1.333.667 1.333 1 0h3c.667 1.333 1.333 1.333 2 0h3c.333 1.333.667 1.333 1 0h3c.333 1.333.667 1.333 1 0h4c.333 1.333.667 1.333 1 0h3c.333 1.333.667 1.333 1 0h3c.333 1.333.667 1.333 1 0h4c.333 1.333.667 1.333 1 0h3c.333 1.333.667 1.333 1 0h3c.333 1.333.667 1.333 1 0h4c.333 1.333.667 1.333 1 0h3c.333 1.333.667 1.333 1 0h3c.667 1.333 1.333 1.333 2 0h3c.333 1.333.667 1.333 1 0h3c.333 1.333.667 1.333 1 0h4c.333 1.333.667 1.333 1 0h3c.333 1.333.667 1.333 1 0h3c.333 1.333.667 1.333 1 0h4c.333 1.333.667 1.333 1 0h3c.333 1.333.667 1.333 1 0h3c.333 1.333.667 1.333 1 0h4c.333 1.333.667 1.333 1 0h3c.333 1.333.667 1.333 1 0h3c.667 1.333 1.333 1.333 2 0h2a1407.95 1407.95 0 0 1-75.5 2c-25.509 0-50.676-.667-75.5-2z"/><path style="opacity:.008" fill="#fff" d="M405.5 452.5c-.211 1.924-.877 2.257-2 1l2-1z"/></svg>